# xmcd
#
# Track frame offsets: 
#        150
#        16774
#        42414
#        59721
#        83123
#        106476
#        125386
#        139230
#        155476
#        172555
#
# Disc length: 2568 seconds
#
# Revision: 0
# Processed by: cddbd v1.5.2PL0 Copyright (c) Steve Scherf et al.
# Submitted via: ExactAudioCopy v0.95b4
#
DISCID=7c0a060a
DTITLE=Daniels, Danny - Leavin' on the Special
DYEAR=2006
DGENRE=Blues
TTITLE0=Day Will Come
TTITLE1=I'll Take Care Of You
TTITLE2=Ready Boogie
TTITLE3=The Fire That Love Can Bring
TTITLE4=Saw Your Light
TTITLE5=Card Game
TTITLE6=Take Me All The Way
TTITLE7=Come On Home
TTITLE8=I Know It's Real
TTITLE9=Leavin' On The Special
EXTD=
EXTT0=
EXTT1=
EXTT2=
EXTT3=
EXTT4=
EXTT5=
EXTT6=
EXTT7=
EXTT8=
EXTT9=
PLAYORDER=
